PathFileType	4	(X/Y/Z)	70_1_6_p0_0-209_filt_butterworth.trc
DataRate	CameraRate	NumFrames	NumMarkers	Units	OrigDataRate	OrigDataStartFrame	OrigNumFrames
40.0	40.0	7	27	m	40.0	26	209
Frame#	Time	RHip			RKnee			RAnkle			RBigToe			RSmallToe			RHeel			LHip			LKnee			LAnkle			LBigToe			LSmallToe			LHeel			Neck			Head			Nose			RShoulder			RElbow			RWrist			RThumb			RIndex			RPinky			LShoulder			LElbow			LWrist			LThumb			LIndex			LPinky			
		X1	Y1	Z1	X2	Y2	Z2	X3	Y3	Z3	X4	Y4	Z4	X5	Y5	Z5	X6	Y6	Z6	X7	Y7	Z7	X8	Y8	Z8	X9	Y9	Z9	X10	Y10	Z10	X11	Y11	Z11	X12	Y12	Z12	X13	Y13	Z13	X14	Y14	Z14	X15	Y15	Z15	X16	Y16	Z16	X17	Y17	Z17	X18	Y18	Z18	X19	Y19	Z19	X20	Y20	Z20	X21	Y21	Z21	X22	Y22	Z22	X23	Y23	Z23	X24	Y24	Z24	X25	Y25	Z25	X26	Y26	Z26	X27	Y27	Z27	
26	0.65	0.35970880669274935	0.5188265913681143	0.09086560674760918	0.36186764610961764	0.6818723827805143	0.4888768121629996	0.3616869441531245	0.8134564085425161	0.9041669448917748	0.31230999132977516	0.6245280083888819	0.9981179722829379	0.38174855448921974	0.6459847421623959	0.983292017597357	0.3476926164333796	0.9214303450654857	0.9921340154004712	0.13328664012577596	0.5906555394436337	0.07857928172744039	0.15875250625079346	0.7012242510546995	0.4930118901972691	0.1669124499313388	0.8228439420532336	0.8935265483686234	0.16666601562397937	0.6558625304132232	0.9882416397123688	0.11108557516737258	0.7161549904296869	0.9758719114079444	0.19201050025411326	0.8849006330141483	0.9441733193810671	0.23906158524128907	0.4185803639067039	-0.560506857241662	0.22332841071454923	0.322449029045346	-0.8138383149620276	0.21706751081945813	0.2807413590354175	-0.6628769083954663	0.42355453691137296	0.42793864312518015	-0.46878848651542737	0.49643463168074575	0.40796727670847377	-0.16934589631211655	0.286677382818914	0.2983882256080115	-0.040564654915848444	0.17053788682320364	0.3017695128878426	-0.039297565405076215	0.1625875124836687	0.29610726073648536	0.017264663850423318	0.17180862375664074	0.29838082766590635	0.037864192201208735	0.07346272525245456	0.4862072487431648	-0.47157382353394006	0.002331749503960922	0.5549179735656573	-0.1998889396737821	0.11487322680322039	0.36159483477071513	-0.029580956323721503	0.1947094272283204	0.30459614178050914	-0.03718377883906748	0.21295671837916022	0.28942343358665545	0.02292890936872875	0.19872036209796223	0.33807053973964984	0.05371345715267688
27	0.675	0.3604469328753529	0.5190217227327203	0.09262411218460997	0.36189915008197815	0.6817105061367369	0.4887812388412712	0.3615628073114133	0.8132741128283003	0.9038789504742415	0.31231358500758205	0.6253409632673711	0.9980471718463986	0.3815972596075789	0.6462532720078259	0.9832662254448223	0.3476899617949331	0.9214377092062371	0.9910904813003278	0.13237442819983658	0.5904179506239771	0.07928176087799516	0.15876903821625657	0.7012944977887303	0.49308058425731194	0.1669820004546222	0.8229830154250957	0.8937704983554372	0.16703889004826702	0.6552753108837881	0.986162370482694	0.11110716088040777	0.7162039791607131	0.9758358925064052	0.19187934219261737	0.8838745459871213	0.9429273807887639	0.23903456238975185	0.4185713422785236	-0.5605364220209702	0.22320420352432774	0.32237795290387006	-0.8138321089135819	0.21728902441760228	0.2813238065096933	-0.6628601698108775	0.42350481625932423	0.427723694798803	-0.46877707373999744	0.49636885478624865	0.40799365823852574	-0.1694745642897612	0.2857403979948634	0.28629337283248846	-0.03673560939060477	0.1719967417459338	0.3025080638166497	-0.03853559808722403	0.16325052697464312	0.29803701215749784	0.020646057959859403	0.17152038092067312	0.29966470534968515	0.039812362026181276	0.0734513157046376	0.48618998033348626	-0.47157452881722745	0.0023258704950975657	0.5548266509706451	-0.19974628919387222	0.11613352071910488	0.3622465127963507	-0.028896262311141212	0.19548879773676564	0.3043098055429251	-0.03728203178165237	0.21498370054393207	0.2901161558805724	0.024803067135920974	0.19980723590606564	0.32867190096338306	0.05367691787154144
28	0.7	0.3580557997345196	0.5199579204775313	0.09324184110274075	0.3619218105814628	0.6816369787687554	0.48877894107274494	0.3611271286915416	0.8123711975138437	0.9023048728916077	0.31305031384159854	0.6252809825004607	0.9981479321945738	0.38176319729796343	0.6463133946569772	0.9832397225336451	0.3471818975992229	0.9205388484979897	0.9877584204778371	0.13067177987533793	0.5902978158586534	0.07880307212814652	0.15877827627867605	0.7013276829801417	0.4931355863002928	0.16697353636049128	0.8229993788453039	0.8937652723097013	0.16725285944482904	0.6549298119907531	0.9849743574469868	0.11112605528238559	0.7162116088023391	0.9758111582622845	0.1907578777583029	0.882236106587096	0.9419297975538639	0.23899274376441915	0.41853573383804915	-0.5605155635565675	0.22316576153610101	0.3224540969970598	-0.8138351500080527	0.21729577128751515	0.281448129179382	-0.6628502020297566	0.4234161352448265	0.4276904249354687	-0.46899351147389795	0.49632313253434523	0.4080916237477676	-0.16951556829349518	0.2873232372711925	0.2799711533049717	-0.03353117605332896	0.17390429573598828	0.3024834758432728	-0.03952557175854759	0.16333433969185662	0.29857235755764033	0.019539754485005903	0.1713624137120095	0.3007904268509194	0.0404378453927457	0.07342673184383597	0.48615799206526356	-0.4714922819374348	0.0023578523363704308	0.5548363024182407	-0.19988269289767852	0.11600007467678147	0.36222682304263093	-0.029059867082213493	0.19869113975593974	0.3048854420409541	-0.03834506536234283	0.21907838006624236	0.29035157182475946	0.027264574865702024	0.20322372430680355	0.32627800287753383	0.054626618277397496
29	0.725	0.35430202562825086	0.5202565697640315	0.09431595100931855	0.3618866097222209	0.6822178855282156	0.48904903622949475	0.3604564515013521	0.8110274149315294	0.8997712426706018	0.3137492484450498	0.6253143333041162	0.9983145705903591	0.3820248503419078	0.6458594195498049	0.9832378481264219	0.34642384466441223	0.9192299033999263	0.9848368998710979	0.12958267032396728	0.5903483549927043	0.07989644606673059	0.15876911684147052	0.7011921704120406	0.4931574645055482	0.1669522920205026	0.8229661603617731	0.8937194361561692	0.16723300525879534	0.6549264255731436	0.9849821062457204	0.11112804178394634	0.716268628694011	0.9758139272316251	0.19043225239356404	0.8824062699209319	0.9418414936175361	0.23894923639717136	0.41847906394585543	-0.5605360134015342	0.2232377551046329	0.32246076141515007	-0.8137907812694097	0.2174155063633339	0.2818635027807497	-0.6627910583433377	0.42354453119770086	0.4289927570822343	-0.4691777559327567	0.496356969200781	0.40817024145217085	-0.16959942919333496	0.29106209980350645	0.2766643610150135	-0.030800996135536718	0.17421281023667404	0.30186476548517815	-0.04124237968139621	0.16295609777057102	0.29813288301253515	0.01962277227553929	0.17254996337429085	0.3012539472608073	0.04130863087163543	0.0720448498266609	0.4856359845720863	-0.47122710079258184	0.0023656446200699065	0.5549465923009391	-0.1997983172882271	0.11519283798783952	0.36220644782208705	-0.02785309645753903	0.20283108764771055	0.30524655159306546	-0.03920272247803542	0.22310870969594537	0.29130568451093836	0.029825035876418944	0.20621095011099733	0.329290876095692	0.05892110070223314
30	0.75	0.3527266724318997	0.5206436211208072	0.09817508068728723	0.3614327600897293	0.6832893862274896	0.489720561903067	0.36005950875865195	0.8102787154657801	0.8983016102002654	0.31508283890202726	0.6287872323092913	0.9982735501746788	0.38203867277493336	0.6463234657660462	0.9832674026882138	0.3459696376615018	0.9185810808765527	0.9836623178639196	0.12976159371364143	0.5911721077219689	0.08440226118466362	0.15874829187028663	0.7010173745801233	0.49323639028719607	0.16695102908258938	0.8229001479788164	0.8937216276464583	0.16716007950100742	0.6549784043212801	0.9851796657690306	0.11111041227199084	0.7162407735139074	0.9758086430464701	0.19054637555921636	0.8827998755222014	0.9419987743095632	0.23890432784245852	0.41837613949655295	-0.5605803908529945	0.22325767957529077	0.32239801838770066	-0.8137669232874044	0.21732340158554425	0.2817172567302518	-0.6627979790978955	0.4235020082371085	0.4289697860230932	-0.46826367250063294	0.49643000096554846	0.4083541615019958	-0.16987290512161718	0.29415646730271794	0.2732986398571824	-0.024392072854326735	0.17462999079980437	0.30115127682071585	-0.03619160933712362	0.16352952535652765	0.29709868367521397	0.025194991323729304	0.17410537602596982	0.29874641993884554	0.04396827374807977	0.06966978017256067	0.4848214420705149	-0.4708980633824092	0.00221421587674159	0.5550530856996145	-0.19858902691622984	0.11343158637587719	0.36272139642760226	-0.023290518403753162	0.20519033334146447	0.2975321760424622	-0.03596445765904177	0.22502463074489154	0.2904897905433424	0.0325721965910902	0.20623606770631808	0.3353092192902257	0.06963730033687437
31	0.775	0.3530595387160336	0.5210811682554481	0.10279325066312063	0.3599487549241311	0.6835805268449751	0.4899987690932378	0.36007392044328146	0.8103344880512356	0.8983333080942848	0.31719506579150836	0.6348501517104578	0.998021412732907	0.3817157822849174	0.6489409721853001	0.9832111880694807	0.34604776632887485	0.918690279291904	0.9840143306364884	0.1300641565131884	0.592847931403632	0.09016619454220944	0.15875876883026369	0.7010677569980175	0.49336800804909386	0.16694285291508945	0.8228449443394849	0.8937719357654574	0.16711222000628262	0.6549232207517665	0.985147344951214	0.1110873982442061	0.7161054433792005	0.9757757887327474	0.19047990583510216	0.881933000097604	0.9420246035464468	0.23886276037496146	0.41823903464425133	-0.5606144026921627	0.22318913515523164	0.32228900450693254	-0.8137864137261108	0.216060632380984	0.27850404680341534	-0.6631694664774339	0.4223946191307375	0.42144120917716144	-0.46580958738305756	0.4964634316045501	0.4085500429339531	-0.16947227423646408	0.29604901357227814	0.283631555350967	-0.010298510174952154	0.17882322070128004	0.30326958372672946	-0.016902350446456115	0.16642784870485589	0.29803535732266995	0.03521890344825736	0.17552341336474195	0.2986389057608807	0.051420404647003565	0.06829356694721472	0.48441144780197876	-0.47078043413036785	0.002347492195170094	0.5550452963038183	-0.19661386799221675	0.1108790192568247	0.363644289861356	-0.01645980613967626	0.20476732876803683	0.280590913050611	-0.023781879439854915	0.22407122485343642	0.2863045388943853	0.036056314475062724	0.20565354138949316	0.34547593257282494	0.08471986201159507
32	0.8	0.3536109685613307	0.5215754321111009	0.10401166780841713	0.3579546855948258	0.6825079645164823	0.48869139191209665	0.3601576359965295	0.8105328476287392	0.8986295717772296	0.31861782010390177	0.6387192013173631	0.9978381935936799	0.38205646898145584	0.6513888612798481	0.9830163616353703	0.34642053577469917	0.9183363910435531	0.984130819999012	0.12961691178985132	0.5939643004652608	0.09360491442808545	0.15877635881133617	0.7010768622101862	0.49342771681077835	0.16690511868872843	0.8228546031580289	0.8937751713988935	0.16714666154129276	0.6547631997519303	0.9850439506178179	0.11108693865304559	0.7160439603099753	0.9757409553009961	0.19045016873231232	0.8811858588542145	0.9420326523893281	0.23884192575471763	0.4181414765997855	-0.5606408483407135	0.22313735578972496	0.32224225956879515	-0.8137463490411444	0.213684933830556	0.2730893886630134	-0.6637693981153829	0.4205371142169112	0.40871154163532797	-0.4633901730593043	0.49643792945974197	0.40836858128298464	-0.16720912840660584	0.2980504939687768	0.3145060742620669	0.008532013486271802	0.18356938223929695	0.3134677065876597	0.009914692949753091	0.17087736452696572	0.3049381881696162	0.05002805383888778	0.18026895270805693	0.3163449998077162	0.0699806484826348	0.06829417422000472	0.4844053305676346	-0.47067104050837605	0.003680163940665928	0.5549892669898359	-0.19546873828706435	0.10870746141696315	0.3644601749904303	-0.009319787082696155	0.20303897645674565	0.2702505511791686	-0.0027349637096037043	0.22265923498215373	0.2837384754213548	0.04217697084324356	0.20502923576046658	0.3582914183037147	0.10009187316860321
